<svg xmlns="http://www.w3.org/2000/svg" viewBox="0 0 32 32" fill="none">
  <defs>
    <linearGradient id="fire" x1="0%" y1="0%" x2="100%" y2="100%">
      <stop offset="0%" style="stop-color:#ff6b6b;stop-opacity:1" />
      <stop offset="50%" style="stop-color:#ffa500;stop-opacity:1" />
      <stop offset="100%" style="stop-color:#ff8e53;stop-opacity:1" />
    </linearGradient>
    <linearGradient id="text" x1="0%" y1="0%" x2="100%" y2="100%">
      <stop offset="0%" style="stop-color:#667eea;stop-opacity:1" />
      <stop offset="100%" style="stop-color:#764ba2;stop-opacity:1" />
    </linearGradient>
  </defs>
  
  <!-- Background circle -->
  <circle cx="16" cy="16" r="15" fill="url(#fire)" opacity="0.9"/>
  
  <!-- Flame icon -->
  <path d="M16 8 C14 8, 12 10, 12 12 C12 14, 13 15, 14 16 C13 17, 12 18, 12 20 C12 22, 14 24, 16 24 C18 24, 20 22, 20 20 C20 18, 19 17, 18 16 C19 15, 20 14, 20 12 C20 10, 18 8, 16 8 Z" 
        fill="white" opacity="0.9"/>
  
  <!-- WB text -->
  <text x="16" y="20" font-family="Arial, sans-serif" font-size="8" font-weight="bold" 
        text-anchor="middle" fill="url(#text)">WB</text>
</svg>
